HIERARCHY
ROOT reference
{
	OFFSET -90.502098 0.000000 1.755774
	CHANNELS 6 Xposition Yposition Zposition Xrotation Yrotation Zrotation
	JOINT root
	{
		OFFSET 1.880760 89.671997 -7.242900
		CHANNELS 3 Xrotation Yrotation Zrotation
		JOINT Hips
		{
			OFFSET 0.000000 0.000000 0.000000
			CHANNELS 3 Xrotation Yrotation Zrotation
			JOINT Spine
			{
				OFFSET 0.018715 -0.106522 0.009742
				CHANNELS 3 Xrotation Yrotation Zrotation
				JOINT Spine1
				{
					OFFSET -5.293510 17.380302 -3.794800
					CHANNELS 3 Xrotation Yrotation Zrotation
					JOINT Spine2
					{
						OFFSET -5.431587 16.765602 -5.830029
						CHANNELS 3 Xrotation Yrotation Zrotation
						JOINT Neck
						{
							OFFSET -7.982063 14.557297 -8.299330
							CHANNELS 3 Xrotation Yrotation Zrotation
							JOINT Head
							{
								OFFSET -5.158058 7.854721 -6.684959
								CHANNELS 3 Xrotation Yrotation Zrotation
								End Site
								{
									OFFSET 0.000000 0.100006 0.000000
								}
							}
						}
						JOINT RightShoulder
						{
							OFFSET -6.139458 13.823593 -11.354399
							CHANNELS 3 Xrotation Yrotation Zrotation
							JOINT RightArm
							{
								OFFSET 6.841248 -5.663712 -13.406200
								CHANNELS 3 Xrotation Yrotation Zrotation
								JOINT RightForearm
								{
									OFFSET -1.583366 -12.235397 -26.691799
									CHANNELS 3 Xrotation Yrotation Zrotation
									JOINT RightHand
									{
										OFFSET -13.468597 -2.251762 -20.854904
										CHANNELS 3 Xrotation Yrotation Zrotation
										End Site
										{
											OFFSET 0.000000 0.099998 0.000000
										}
									}
								}
							}
						}
						JOINT LeftShoulder
						{
							OFFSET -9.834099 15.277695 -5.252689
							CHANNELS 3 Xrotation Yrotation Zrotation
							JOINT LeftArm
							{
								OFFSET -7.357773 2.976974 13.986002
								CHANNELS 3 Xrotation Yrotation Zrotation
								JOINT LeftForearm
								{
									OFFSET 7.692787 -14.025902 24.673000
									CHANNELS 3 Xrotation Yrotation Zrotation
									JOINT LeftHand
									{
										OFFSET -9.796074 -21.465797 -8.040868
										CHANNELS 3 Xrotation Yrotation Zrotation
										End Site
										{
											OFFSET 0.000000 0.099998 0.000000
										}
									}
								}
							}
						}
					}
				}
			}
			JOINT RightUpLeg
			{
				OFFSET 4.849403 0.340744 -8.229600
				CHANNELS 3 Xrotation Yrotation Zrotation
				JOINT RightLeg
				{
					OFFSET 7.069298 -43.389702 -9.724192
					CHANNELS 3 Xrotation Yrotation Zrotation
					JOINT RightFoot
					{
						OFFSET 18.254601 -36.336201 6.482475
						CHANNELS 3 Xrotation Yrotation Zrotation
						JOINT RightToe
						{
							OFFSET -10.815697 -7.739180 -12.135296
							CHANNELS 3 Xrotation Yrotation Zrotation
							End Site
							{
								OFFSET 0.000000 0.100000 0.000000
							}
						}
					}
				}
			}
			JOINT LeftUpLeg
			{
				OFFSET -4.849403 -0.340767 8.229591
				CHANNELS 3 Xrotation Yrotation Zrotation
				JOINT LeftLeg
				{
					OFFSET -22.404396 -38.934101 -3.061946
					CHANNELS 3 Xrotation Yrotation Zrotation
					JOINT LeftFoot
					{
						OFFSET 3.268173 -41.018398 1.541950
						CHANNELS 3 Xrotation Yrotation Zrotation
						JOINT LeftToe
						{
							OFFSET -16.265396 -7.717820 0.107094
							CHANNELS 3 Xrotation Yrotation Zrotation
							End Site
							{
								OFFSET 0.000000 0.100000 0.000000
							}
						}
					}
				}
			}
		}
	}
}
MOTION
Frames: 8
Frame Time: 0.041667
-0.000015 -0.000002 0.000000 -0.000000 0.000000 0.000000 -0.000000 0.000000 0.000000 0.000000 -0.000009 -0.000004 -0.000000 0.000000 -0.000004 -0.000001 0.000003 -0.000002 0.000000 0.000000 0.003773 -0.000001 -0.000008 -0.000005 0.000001 -0.000001 0.000002 -0.000011 0.000004 0.000010 0.000004 -0.000002 -0.000002 -0.000007 -0.000002 0.000004 0.000006 -0.000003 0.000007 0.000003 -0.000004 0.000001 0.000003 0.000000 -0.000004 -0.000006 0.000002 0.000004 -0.000002 -0.000006 0.000003 0.000004 -0.000015 -0.000003 -0.000001 -0.000006 0.000004 -0.000010 0.000010 0.000004 0.000000 0.000006 -0.000001 -0.000003 0.000009 0.000010 0.000000 -0.000001 0.000003 -0.000000 -0.000002 0.000000 0.000000 0.000000 -0.000007 
-0.000015 -0.000002 0.000000 -0.000000 0.000000 0.000000 -0.000000 0.000000 0.000000 0.000000 -0.000009 -0.000004 -0.000000 0.000000 -0.000004 -0.000001 0.000003 -0.000002 0.000000 0.000000 0.003773 -0.000001 -0.000008 -0.000005 0.000001 -0.000001 0.000002 -0.000011 0.000004 0.000010 0.000004 -0.000002 -0.000002 -0.000007 -0.000002 0.000004 0.000006 -0.000003 0.000007 0.000003 -0.000004 0.000001 0.000003 0.000000 -0.000004 -0.000006 0.000002 0.000004 -0.000002 -0.000006 0.000003 0.000004 -0.000015 -0.000003 -0.000001 -0.000006 0.000004 -0.000010 0.000010 0.000004 0.000000 0.000006 -0.000001 -0.000003 0.000009 0.000010 0.000000 -0.000001 0.000003 -0.000000 -0.000002 0.000000 0.000000 0.000000 -0.000007 
-1.902420 -0.000002 -0.106853 -0.000000 0.000000 0.000000 -0.090679 -0.251723 -0.067848 0.081074 0.022786 0.048705 0.030706 0.032345 0.006713 0.029473 0.078177 -0.005102 0.015717 0.053573 0.003765 0.027404 -0.046329 -0.096615 0.123129 -0.054868 -0.153039 -0.205939 -0.028822 -0.082063 0.075904 -0.404079 0.019643 0.098161 0.164040 -0.081170 0.050015 0.046744 0.100948 0.005871 -0.069372 0.021495 -0.267728 -0.032166 -0.331244 -0.010951 0.003067 0.005171 0.016095 0.004995 0.034446 0.811390 0.357863 1.901777 0.887397 0.305797 -0.749052 -4.314686 -0.906418 -0.163851 -5.929414 0.483004 -6.770734 0.740075 -0.172451 0.592146 -0.370976 0.042178 2.086350 -1.055629 0.486330 -2.752507 0.702431 0.011529 -0.078818 
-5.323395 -0.000002 -0.284659 -0.000000 0.000000 0.000000 -0.041621 -0.549969 0.014726 0.176399 0.049626 0.105942 -0.018951 0.051442 0.028768 -0.053123 0.139878 0.013739 -0.043598 0.092428 0.003843 0.028649 -0.150790 -0.225088 0.234376 -0.207922 -0.393127 -0.613311 -0.239754 -0.194529 0.395854 -0.924723 0.005014 0.130627 0.218179 -0.108063 0.130423 0.023053 0.151716 0.031393 -0.196719 0.069000 0.097845 0.566123 -1.048981 -0.606257 0.168095 0.286209 -0.043723 0.012268 -0.076416 3.348644 3.674991 4.045548 0.187490 0.065692 -0.158149 -16.820835 -5.561243 2.097139 4.344415 3.135883 -18.660999 2.203751 -0.188248 2.420496 -0.782626 0.073056 4.393349 -4.668901 1.697203 -6.876460 3.235690 0.059751 -0.508321 
-6.996506 -0.000002 -0.246610 -0.000000 0.000000 0.000000 0.057528 -0.876643 0.271362 0.126677 0.035559 0.076085 -0.078223 0.071900 0.037328 -0.133775 0.151414 0.025664 -0.098823 0.097039 0.003955 0.014886 -0.154853 -0.273064 0.247064 -0.201620 -0.484317 -0.639371 -0.287283 -0.191037 0.431562 -0.923161 0.001412 0.089209 0.149099 -0.073759 0.124394 -0.013018 0.106109 0.079465 -0.148954 0.083799 0.510108 0.867491 -1.124133 -0.879000 0.242644 0.415406 -0.082499 0.135832 -0.161898 4.915390 6.860036 4.259023 -1.442007 -0.524738 1.214188 -25.188838 -9.661897 4.297652 13.324569 3.666053 -25.388158 2.934534 -0.175047 3.664198 -0.806068 0.074321 4.524553 -6.564408 2.551914 -8.377895 4.491438 0.082664 -0.595247 
-10.609009 -0.000002 -0.180023 -0.000000 0.000000 0.000000 0.652539 -1.750235 1.040445 -0.228134 -0.063480 -0.137156 -0.246170 0.248894 0.044396 -0.347213 0.253844 0.033210 -0.249051 0.155128 0.001156 0.087148 -0.107597 -0.332925 0.407047 -0.096842 -0.518570 -0.615085 -0.340963 -0.163432 0.253462 -0.926296 -0.521718 0.039707 0.066426 -0.032826 0.216452 -0.097209 0.145563 0.279783 -0.246705 0.223226 0.576155 0.460750 -0.599833 -0.633205 0.175494 0.298952 0.028897 0.006166 -0.151098 9.698117 12.585036 2.087476 -6.689445 -2.730637 5.596310 -36.475929 -17.009314 10.443735 19.331896 3.921885 -33.360273 4.037825 0.861569 6.130000 -0.759280 0.071762 4.262685 -8.496395 3.565273 -11.177538 5.255639 0.098947 0.133541 
-12.517899 -0.000002 -0.137898 -0.000000 0.000000 0.000000 1.106915 -1.996105 1.382043 -0.440852 -0.122390 -0.265192 -0.353104 0.298560 0.064920 -0.475112 0.233349 0.072904 -0.334522 0.138469 0.031133 0.130176 -0.034858 -0.382049 0.505665 0.051275 -0.550246 -0.630768 -0.341615 -0.170190 0.058291 -0.901731 -1.017603 0.047746 0.079864 -0.039476 0.289215 -0.137987 0.203002 0.399433 -0.320514 0.310949 0.309980 0.146452 -0.409299 -0.356006 0.099100 0.167894 0.066742 -0.163866 -0.153999 12.475040 13.706883 -0.221424 -9.643518 -4.182144 8.033551 -35.261914 -19.274533 15.665963 12.769653 5.847711 -32.337186 4.319392 1.755320 7.413382 -0.697639 0.068052 3.917584 -8.791758 3.599261 -12.426377 5.010442 0.095536 0.325482 
-14.293808 -0.000002 -0.138399 -0.000000 0.000000 0.000000 1.567994 -1.720403 1.632282 -0.708692 -0.195510 -0.426597 -0.441904 0.232480 0.090348 -0.557217 0.034658 0.147082 -0.379190 0.007987 0.101356 0.150017 0.004379 -0.419608 0.561243 0.134364 -0.587616 -0.634623 -0.331799 -0.174940 -0.169774 -0.845135 -1.261129 0.074147 0.123954 -0.061307 0.325574 -0.160529 0.231707 0.493237 -0.327537 0.366551 0.088647 -0.044814 -0.435544 -0.243412 0.067882 0.114741 0.072294 -0.176780 -0.164714 15.152191 13.348262 -2.774140 -12.384076 -5.667486 10.271605 -31.375362 -19.332960 18.794649 3.646268 7.897019 -26.697785 4.558643 2.228955 8.755965 -0.622309 0.063015 3.495661 -9.229458 3.564687 -13.425130 4.943384 0.093482 0.348777 
